M48
; DRILL file {KiCad 7.0.1-3b83917a11~172~ubuntu22.04.1} date Tue 21 Mar 2023 01:48:30 AM HKT
; FORMAT={-:-/ absolute / inch / decimal}
; #@! TF.CreationDate,2023-03-21T01:48:30+08:00
; #@! TF.GenerationSoftware,Kicad,Pcbnew,7.0.1-3b83917a11~172~ubuntu22.04.1
; #@! TF.FileFunction,Plated,1,4,PTH
FMAT,2
INCH
; #@! TA.AperFunction,Plated,PTH,ComponentDrill
T1C0.0197
; #@! TA.AperFunction,Plated,PTH,ComponentDrill
T2C0.0394
; #@! TA.AperFunction,Plated,PTH,ComponentDrill
T3C0.0402
; #@! TA.AperFunction,Plated,PTH,ComponentDrill
T4C0.1260
%
G90
G05
T1
X4.1181Y-1.7323
X4.1181Y-4.4882
X4.1458Y-1.6655
X4.1458Y-1.7991
X4.1458Y-4.4214
X4.1458Y-4.555
X4.2126Y-1.6378
X4.2126Y-1.8268
X4.2126Y-4.3937
X4.2126Y-4.5827
X4.2794Y-1.6655
X4.2794Y-1.7991
X4.2794Y-4.4214
X4.2794Y-4.555
X4.3071Y-1.7323
X4.3071Y-4.4882
X6.0866Y-1.7323
X6.0866Y-4.4882
X6.1143Y-1.6655
X6.1143Y-1.7991
X6.1143Y-4.4214
X6.1143Y-4.555
X6.1811Y-1.6378
X6.1811Y-1.8268
X6.1811Y-4.3937
X6.1811Y-4.5827
X6.2479Y-1.6655
X6.2479Y-1.7991
X6.2479Y-4.4214
X6.2479Y-4.555
X6.2756Y-1.7323
X6.2756Y-4.4882
T2
X4.6394Y-1.78
X4.6394Y-1.88
X4.6394Y-2.2188
X4.6394Y-2.3188
X4.7394Y-1.78
X4.7394Y-1.88
X4.7394Y-2.2188
X4.7394Y-2.3188
X4.8394Y-1.78
X4.8394Y-1.88
X4.8394Y-2.2188
X4.8394Y-2.3188
X4.9394Y-1.78
X4.9394Y-1.88
X4.9394Y-2.2188
X4.9394Y-2.3188
X5.0394Y-1.78
X5.0394Y-1.88
X5.0394Y-2.2188
X5.0394Y-2.3188
X5.1394Y-1.78
X5.1394Y-1.88
X5.1394Y-2.2188
X5.1394Y-2.3188
X5.2394Y-1.78
X5.2394Y-1.88
X5.2394Y-2.2188
X5.2394Y-2.3188
X5.3394Y-1.78
X5.3394Y-1.88
X5.3394Y-2.2188
X5.3394Y-2.3188
X5.6713Y-3.6693
X5.7713Y-3.6693
X5.8713Y-3.6693
X5.9713Y-3.6693
T3
X4.4854Y-2.9421
X4.4854Y-3.0421
X4.4854Y-3.1421
X4.4854Y-3.2421
X4.4854Y-3.3421
X4.4854Y-3.4421
X4.4854Y-3.5421
X4.4854Y-3.6421
X4.4854Y-3.7421
X4.4854Y-3.8421
X4.4854Y-3.9421
X4.4854Y-4.0421
X4.4854Y-4.1421
X4.4854Y-4.2421
X4.4854Y-4.3421
X5.4854Y-2.9421
X5.4854Y-3.0421
X5.4854Y-3.1421
X5.4854Y-3.2421
X5.4854Y-3.3421
X5.4854Y-3.4421
X5.4854Y-3.5421
X5.4854Y-3.6421
X5.4854Y-3.7421
X5.4854Y-3.8421
X5.4854Y-3.9421
X5.4854Y-4.0421
X5.4854Y-4.1421
X5.4854Y-4.2421
X5.4854Y-4.3421
T4
X4.2126Y-1.7323
X4.2126Y-4.4882
X6.1811Y-1.7323
X6.1811Y-4.4882
T0
M30
